Simulation
nRows=30
nColumns=15
endheader
time  TH_x TH_y TH_z SC_y  SC_z  SC_x  AC_y  AC_z  AC_x  GH_y  GH_z  GH_yy  EL_x  PS_y
0.0  0.000000  0.000000  0.000000  -40.51702127513202  0.1660387291572758  8.096945418650368  47.87685797206697  -1.9967308631530591  -5.00175112221036  47.561864999995535  6.973739258243652  -23.07952853462656  22.99564071039444  120.000000
0.03099999999999998  0.000000  0.000000  0.000000  -39.52252465205788  1.1816246254780465  8.074332250440593  47.42375636272225  -1.9146231828248579  -4.420518657352503  47.32215275316399  8.057115772639  -23.14419215894994  23.17588768506225  120.000000
0.06199999999999996  0.000000  0.000000  0.000000  -38.67107518369268  1.895308227964863  8.077766239717906  47.003565090738206  -1.9195201721767359  -4.129581682694687  47.07550582318284  9.032736910033321  -23.203347845818634  23.27198155867098  120.000000
0.09299999999999994  0.000000  0.000000  0.000000  -38.06561106832236  2.382332705090923  8.14238299322394  46.63774370487834  -2.0341694995291912  -4.046351571843547  46.85223298576959  9.920340527577384  -23.238767066379374  23.318056914380374  120.000000
0.12399999999999992  0.000000  0.000000  0.000000  -37.697733860276976  2.668750324075978  8.317873151500354  46.345776587225195  -2.243442126365009  -4.159224549844702  46.66040498993526  10.738380020888457  -23.253069002820006  23.329153088069564  120.000000
0.1549999999999999  0.000000  0.000000  0.000000  -37.53559745538475  2.805267302447762  8.635011948015057  46.143157803872505  -2.535361270686233  -4.429268257102593  46.49544460029289  11.522280220764879  -23.263228728917912  23.304967468746707  120.000000
0.1859999999999999  0.000000  0.000000  0.000000  -37.537196002570994  2.8474944079871385  9.107431483621001  46.02887523739275  -2.893808892735273  -4.810212843961491  46.34237058624236  12.311882371528473  -23.293982629262512  23.265169919230846  120.000000
0.21699999999999986  0.000000  0.000000  0.000000  -37.658209326733704  2.8456859156713583  9.736127628747923  45.9976267723651  -3.3011731491067504  -5.261375023023776  46.18462535383163  13.148619911633915  -23.36661365981264  23.23103638042605  120.000000
0.24799999999999983  0.000000  0.000000  0.000000  -37.861075114778664  2.8409568763641246  10.514055239108842  46.038428569685244  -3.7421669194177873  -5.747738710175536  46.00413316073139  14.067934205056563  -23.499260941536726  23.223100631874583  120.000000
0.2789999999999998  0.000000  0.000000  0.000000  -38.11998241814274  2.8601515155551973  11.42927847340582  46.140369569109936  -4.203918389984896  -6.244664871314221  45.78280480138178  15.100163746445116  -23.70637683067479  23.25901486321312  120.000000
0.3099999999999998  0.000000  0.000000  0.000000  -38.41534575118961  2.921911536708628  12.468539234405505  46.28982368576079  -4.67836522963749  -6.7343928801373485  45.50619047068369  16.26186647187131  -23.995293001882256  23.347668853115678  120.000000
0.34099999999999975  0.000000  0.000000  0.000000  -38.72823445191308  3.041460908956559  13.615201568368594  46.471843552226694  -5.162425134950938  -7.204554415676887  45.164358841589525  17.556223126594706  -24.367185839533054  23.487762419937045  120.000000
0.3719999999999998  0.000000  0.000000  0.000000  -39.0455435774115  3.2252527287149806  14.852724074224618  46.67389670590399  -5.650188097660497  -7.647481194133177  44.75468998944704  18.97302101717721  -24.814372843208556  23.66912092639802  120.000000
0.40299999999999975  0.000000  0.000000  0.000000  -39.355552716236176  3.4702112658952164  16.16373943774074  46.88392988123577  -6.133481419447733  -8.062315386014598  44.28001630313645  20.496778896202162  -25.323660953979132  23.87553691497618  120.000000
0.4339999999999997  0.000000  0.000000  0.000000  -39.64534217604493  3.7680351335435156  17.533205056269583  47.09192764063562  -6.605041956044547  -8.453587718884215  43.747380067432445  22.107374796676403  -25.880119996483582  24.08639422004294  120.000000
0.4649999999999997  0.000000  0.000000  0.000000  -39.90315031319879  4.108114608113991  18.942148338278635  47.28726375869101  -7.055067341900309  -8.82566240217081  43.16913074643767  23.783723660074337  -26.466243819476254  24.280352677082583  120.000000
0.49599999999999966  0.000000  0.000000  0.000000  -40.1204837443588  4.481071806260882  20.362204084563775  47.46258395849652  -7.465075585048452  -9.175715989590715  42.56145756180348  25.502629733908787  -27.06490696544941  24.4400227148343  120.000000
0.5269999999999997  0.000000  0.000000  0.000000  -40.29631913763187  4.878931226312462  21.766768440181806  47.61357812854518  -7.812530760036302  -9.498478057944064  41.94424221421885  27.238498490520247  -27.657932324069527  24.55490857681325  120.000000
0.5579999999999996  0.000000  0.000000  0.000000  -40.43899571037349  5.2933058252852225  23.140995314549674  47.741401347550415  -8.07794289809602  -9.792943778704952  41.33851719897311  28.96554105723393  -28.229253978981486  24.622729071217922  120.000000
0.5889999999999996  0.000000  0.000000  0.000000  -40.56452443944638  5.716383751725723  24.48295971412927  47.84908884053484  -8.248753117800751  -10.061691478808395  40.765464563525406  30.6582957561899  -28.764153466831555  24.647843254994246  120.000000
0.6199999999999996  0.000000  0.000000  0.000000  -40.6950908015584  6.144766083048989  25.804205519310365  47.940759423233764  -8.328833577744518  -10.309474092726001  40.24359140803345  32.295697912452695  -29.254283270039245  24.636327294947165  120.000000
0.6509999999999996  0.000000  0.000000  0.000000  -40.85814080856802  6.582446966992406  27.129017543886643  48.01849754715421  -8.348094244273955  -10.540356896348415  39.78384872229859  33.86597860865423  -29.701611876233102  24.5915575601639  120.000000
0.6819999999999995  0.000000  0.000000  0.000000  -41.08259263015021  7.034486670913115  28.484671055209564  48.0862198569076  -8.34809424560065  -10.756924456472035  39.39061058364152  35.36684045633974  -30.12266166939153  24.513926195727397  120.000000
0.7129999999999995  0.000000  0.000000  0.000000  -41.395709180314476  7.495804090213759  29.88493260349898  48.155371597492284  -8.348094150736078  -10.954615850099618  39.071470536250004  36.79691466372052  -30.547556448326056  24.40111065362199  120.000000
0.7439999999999996  0.000000  0.000000  0.000000  -41.818691186127396  7.951988840453999  31.32938855342797  48.243078802528395  -8.348094250059875  -11.123698931799558  38.833844697348866  38.15850358429911  -31.014326120741295  24.248264418612962  120.000000
0.7749999999999995  0.000000  0.000000  0.000000  -42.363803744061165  8.388526514845218  32.812524482477606  48.36567073144463  -8.348094131143768  -11.251937270958539  38.677924599657146  39.45864840237998  -31.558369535611252  24.049883192497706  120.000000
0.8059999999999995  0.000000  0.000000  0.000000  -43.032761795754865  8.795010631158595  34.32301209721485  48.53588282078671  -8.348094250934647  -11.324623208243896  38.596959879512674  40.706235890463326  -32.20019330763881  23.801814803240692  120.000000
0.8369999999999994  0.000000  0.000000  0.000000  -43.81562042338782  9.166140528949075  35.84733168381384  48.76049309685226  -8.348094145676667  -11.32800410310204  38.575706628205616  41.9080780130422  -32.93479947933359  23.504033669656007  120.000000
0.8679999999999994  0.000000  0.000000  0.000000  -44.69222267190791  9.502058116190979  37.37021932579761  49.039333194556484  -8.348094250912355  -11.251062588437462  38.58911814342422  43.06792775861409  -33.729804091689516  23.16122319457374  120.000000
0.8989999999999994  0.000000  0.000000  0.000000  -45.637264139161374  9.806566256803363  38.877157760681115  49.367194375056314  -8.348094084123675  -11.086731782048034  38.60261303732581  44.18453349032138  -34.533128553263914  22.781773366796855  120.000000
